<svg aria-hidden="true" style="position: absolute; width: 0; height: 0; overflow: hidden;" version="1.1" xmlns="http://www.w3.org/2000/svg" xmlns:xlink="http://www.w3.org/1999/xlink">
<defs>
<symbol id="icon-mail" viewBox="0 0 43 32">
<path fill="#afb1b8" style="fill: var(--color1,  )" d="M38.682-0.006h-34.68c-2.206 0-4.002 1.795-4.002 4.002v24.009c0 2.206 1.795 4.002 4.002 4.002h34.68c2.206 0 4.002-1.795 4.002-4.002v-24.009c0-2.206-1.795-4.002-4.002-4.002zM38.682 2.661c0.181 0 0.355 0.037 0.512 0.104l-17.852 15.473-17.852-15.473c0.151-0.065 0.327-0.104 0.512-0.104h34.68zM38.682 29.339h-34.68c-0.737 0-1.334-0.597-1.334-1.334v0-22.422l17.799 15.427c0.233 0.203 0.539 0.327 0.875 0.327s0.642-0.124 0.877-0.328l-0.002 0.001 17.799-15.427v22.422c0 0.737-0.597 1.334-1.334 1.334v0z"></path>
</symbol>
<symbol id="icon-mobilka" viewBox="0 0 20 32">
<path fill=" #afb1b8" style="fill:var(--color1,  )  " d="M17.009 0h-14.005c-1.655 0-3.001 1.347-3.001 3.001v26.010c0 1.655 1.347 3.001 3.001 3.001h14.005c1.655 0 3.001-1.347 3.001-3.001v-26.010c0-1.655-1.347-3.001-3.001-3.001zM3.004 2.001h14.005c0.552 0 1 0.448 1 1v0 21.008h-16.006v-21.008c0-0.553 0.448-1 1-1v0zM17.009 30.012h-14.005c-0.553 0-1-0.448-1-1v0-3.001h16.006v3.001c0 0.552-0.448 1-1 1v0z"></path>
</symbol>
<symbol id="icon-facebook" viewBox="0 0 18 32">
<path fill="#afb1b8" style="fill: var(--color2,  )" d="M13.341 5.315h2.925v-5.091c-1.233-0.143-2.662-0.224-4.11-0.224-0.052 0-0.104 0-0.156 0l0.008-0c-4.215 0-7.104 2.651-7.104 7.525v4.483h-4.649v5.692h4.649v14.321h5.701v-14.319h4.465l0.708-5.693h-5.171v-3.922c0-1.644 0.443-2.77 2.736-2.77z"></path>
</symbol>
<symbol id="icon-foto" viewBox="0 0 32 32">
<path fill="#afb1b8" style="fill: var(--color2, )" d="M31.988 9.414c-0.074-1.702-0.349-2.871-0.743-3.884-0.425-1.112-1.055-2.060-1.851-2.839l-0.001-0.001c-0.78-0.793-1.725-1.42-2.78-1.828l-0.054-0.018c-1.020-0.394-2.182-0.668-3.884-0.743-1.713-0.082-2.257-0.101-6.606-0.101-4.347 0-4.891 0.019-6.599 0.094-1.7 0.074-2.871 0.349-3.882 0.743-1.113 0.424-2.061 1.055-2.84 1.851l-0.001 0.001c-0.792 0.78-1.419 1.725-1.826 2.78l-0.018 0.054c-0.395 1.020-0.669 2.182-0.744 3.884-0.082 1.713-0.101 2.257-0.101 6.606 0 4.347 0.019 4.891 0.094 6.599 0.075 1.702 0.351 2.871 0.744 3.884 0.427 1.111 1.056 2.058 1.85 2.839l0.001 0.001c0.8 0.813 1.771 1.444 2.834 1.844 1.020 0.395 2.184 0.671 3.884 0.744 1.708 0.075 2.253 0.094 6.599 0.094 4.348 0 4.893-0.019 6.599-0.094 1.702-0.074 2.871-0.349 3.884-0.743 2.159-0.851 3.836-2.527 4.667-4.631l0.019-0.055c0.394-1.020 0.669-2.184 0.744-3.884 0.075-1.708 0.093-2.253 0.093-6.599s-0.006-4.891-0.080-6.599zM29.106 22.488c-0.070 1.564-0.333 2.408-0.551 2.971-0.552 1.4-1.641 2.488-3.006 3.026l-0.036 0.013c-0.56 0.219-1.412 0.482-2.97 0.551-1.689 0.075-2.195 0.094-6.468 0.094-4.271 0-4.785-0.019-6.468-0.094-1.564-0.069-2.408-0.331-2.971-0.551-0.721-0.269-1.335-0.676-1.837-1.193l-0.001-0.001c-0.517-0.504-0.925-1.117-1.185-1.804l-0.011-0.034c-0.218-0.564-0.48-1.414-0.549-2.971-0.075-1.689-0.094-2.197-0.094-6.468 0-4.273 0.019-4.787 0.094-6.468 0.069-1.564 0.331-2.408 0.549-2.971 0.269-0.723 0.678-1.338 1.199-1.838l0.002-0.002c0.505-0.517 1.119-0.924 1.807-1.183l0.034-0.011c0.56-0.219 1.412-0.48 2.97-0.551 1.689-0.074 2.197-0.093 6.468-0.093 4.278 0 4.785 0.019 6.468 0.093 1.564 0.069 2.408 0.331 2.971 0.551 0.693 0.256 1.326 0.663 1.838 1.194 0.532 0.52 0.938 1.145 1.196 1.841 0.218 0.56 0.48 1.412 0.549 2.97 0.075 1.689 0.094 2.195 0.094 6.468 0 4.271-0.019 4.771-0.094 6.462z"></path>
<path fill="#afb1b8" style="fill: var(--color2, )" d="M16.069 7.787c-4.542 0.002-8.223 3.684-8.224 8.226v0c0.091 4.474 3.739 8.065 8.226 8.065s8.135-3.592 8.226-8.057l0-0.009c-0.001-4.543-3.683-8.225-8.226-8.226h-0zM16.069 21.348c-2.947-0-5.335-2.389-5.335-5.336s2.389-5.336 5.336-5.336c0 0 0.001 0 0.001 0h-0c2.947 0 5.337 2.389 5.337 5.337s-2.389 5.337-5.337 5.337v0zM26.541 7.462c0 1.061-0.86 1.921-1.921 1.921s-1.921-0.86-1.921-1.921v0c0-1.061 0.86-1.921 1.921-1.921s1.921 0.86 1.921 1.921v0z"></path>
</symbol>
<symbol id="icon-instagram" viewBox="0 0 32 32">
<path fill="#afb1b8" style="fill: var(--color2,  )" d="M32.012 32.020h0.008v-11.745c0-5.744-1.238-10.17-7.952-10.17-3.229 0-5.395 1.771-6.281 3.452h-0.093v-2.915h-6.369v21.377h6.631v-10.584c0-2.787 0.528-5.483 3.98-5.483 3.401 0 3.45 3.181 3.45 5.661v10.408h6.625zM0.528 10.642h6.639v21.378h-6.639v-21.378zM3.846 0c-2.124 0-3.846 1.722-3.846 3.846v0c0 2.121 1.723 3.881 3.846 3.881 2.121 0 3.844-1.758 3.844-3.881s-1.721-3.844-3.844-3.846h-0z"></path>
</symbol>
<symbol id="icon-logo1" viewBox="0 0 29 32">
<path fill="#afb1b8" style="fill: var(--color2, )" d="M3.837 0l4.678 4.429h13.049v12.354l4.678 4.429v-21.211h-22.406z"></path>
<path fill="#afb1b8" style="fill: var(--color2, )" d="M-0.004 4.242v20.605h21.765v-8.19l-13.109-12.41-8.657-0.005zM17.616 21.833h-14.175v-13.859h1.002v12.92h13.173v0.938zM6.264 28.669l0.524-1.079h0.438l-0.764 1.438v0.838h-0.397v-0.838l-0.764-1.437h0.439l0.524 1.079zM8.511 29.336h-0.881l-0.184 0.53h-0.411l0.859-2.276h0.355l0.861 2.276h-0.413l-0.186-0.53zM7.741 29.017h0.659l-0.33-0.944-0.33 0.944zM10.070 29.251c0-0.105 0.029-0.202 0.086-0.289 0.058-0.089 0.17-0.193 0.339-0.314-0.070-0.083-0.131-0.176-0.182-0.276l-0.004-0.008c-0.031-0.066-0.050-0.144-0.052-0.226v-0c0-0.179 0.054-0.319 0.163-0.422s0.254-0.156 0.437-0.156c0.166 0 0.301 0.049 0.406 0.147 0.106 0.097 0.16 0.218 0.16 0.361 0 0.001 0 0.002 0 0.003 0 0.096-0.027 0.186-0.074 0.262l0.001-0.002c-0.063 0.095-0.142 0.174-0.233 0.236l-0.003 0.002-0.155 0.113 0.44 0.519c0.063-0.125 0.095-0.264 0.095-0.417h0.33c0 0.28-0.065 0.51-0.197 0.689l0.334 0.396h-0.44l-0.128-0.152c-0.154 0.115-0.348 0.183-0.558 0.183-0.008 0-0.017-0-0.025-0l0.001 0c-0.225 0-0.405-0.060-0.54-0.179-0.124-0.11-0.202-0.27-0.202-0.447 0-0.007 0-0.014 0-0.021l-0 0.001zM10.823 29.594c0.128 0 0.248-0.043 0.359-0.128l-0.497-0.586-0.049 0.035c-0.125 0.095-0.188 0.203-0.188 0.325 0 0.105 0.034 0.191 0.102 0.256 0.066 0.061 0.156 0.099 0.254 0.099 0.006 0 0.013-0 0.019-0l-0.001 0zM10.613 28.128c0 0.088 0.054 0.197 0.161 0.33l0.173-0.118 0.049-0.039c0.059-0.052 0.097-0.128 0.097-0.212 0-0.003-0-0.006-0-0.009v0c0-0.001 0-0.001 0-0.002 0-0.059-0.026-0.113-0.067-0.149l-0-0c-0.042-0.040-0.099-0.064-0.162-0.064-0.003 0-0.006 0-0.009 0h0c-0.003-0-0.006-0-0.010-0-0.066 0-0.126 0.029-0.167 0.075l-0 0c-0.041 0.048-0.066 0.111-0.066 0.179 0 0.003 0 0.007 0 0.010v-0zM14.748 29.125c-0.023 0.243-0.113 0.432-0.269 0.568s-0.364 0.204-0.624 0.204c-0.181 0-0.341-0.043-0.48-0.128-0.139-0.090-0.248-0.214-0.317-0.362l-0.002-0.005c-0.074-0.16-0.117-0.347-0.117-0.544 0-0.003 0-0.005 0-0.008v0-0.213c0-0.214 0.038-0.403 0.114-0.567 0.077-0.164 0.186-0.29 0.326-0.378 0.143-0.089 0.307-0.133 0.494-0.133 0.251 0 0.453 0.069 0.606 0.205s0.243 0.329 0.268 0.578h-0.394c-0.019-0.163-0.067-0.281-0.144-0.353-0.076-0.073-0.188-0.109-0.336-0.109-0.172 0-0.304 0.063-0.397 0.189-0.092 0.125-0.138 0.309-0.141 0.552v0.202c0 0.246 0.044 0.433 0.132 0.563s0.218 0.194 0.387 0.194c0.155 0 0.272-0.035 0.35-0.105s0.128-0.186 0.149-0.348h0.394zM16.918 28.787c0 0.223-0.038 0.419-0.115 0.588-0.077 0.168-0.188 0.297-0.332 0.388-0.143 0.090-0.307 0.134-0.494 0.134-0.184 0-0.349-0.045-0.494-0.134-0.146-0.094-0.261-0.225-0.332-0.38l-0.002-0.006c-0.075-0.163-0.119-0.354-0.119-0.555 0-0.008 0-0.015 0-0.023v0.001-0.128c0-0.222 0.038-0.418 0.117-0.588s0.19-0.3 0.333-0.389c0.144-0.091 0.309-0.136 0.494-0.136s0.35 0.045 0.493 0.134c0.143 0.089 0.255 0.217 0.333 0.384s0.118 0.362 0.118 0.584v0.126zM16.523 28.669c0-0.252-0.048-0.446-0.143-0.58-0.085-0.123-0.225-0.202-0.384-0.202-0.007 0-0.015 0-0.022 0.001l0.001-0c-0.005-0-0.011-0-0.016-0-0.159 0-0.299 0.079-0.384 0.2l-0.001 0.002c-0.096 0.133-0.145 0.323-0.147 0.567v0.131c0 0.25 0.049 0.444 0.146 0.58s0.233 0.205 0.406 0.205c0.175 0 0.31-0.067 0.403-0.2 0.095-0.133 0.142-0.328 0.142-0.584v-0.118z"></path>
</symbol>
<symbol id="icon-logo2" viewBox="0 0 25 32">
<path fill="#afb1b8" style="fill: var(--color2,  )" d="M10.449 1.806h0.084c0.156 0 0.324 0.015 0.49 0.030 0.734 0.052 1.463 0.162 2.18 0.329v-1.762c-0.652-0.172-1.42-0.3-2.207-0.357l-0.042-0.002c-0.254-0.020-0.571-0.035-0.889-0.043l-0.021-0h-0.263c-1.523 0.006-3.040 0.201-4.515 0.582-1.68 0.418-3.293 1.075-4.791 1.949v17.477c1.312-0.729 2.832-1.339 4.432-1.75l0.135-0.029c1.123-0.3 2.434-0.51 3.78-0.586l0.053-0.002h0.052c0.217-0.011 0.433-0.017 0.655-0.018v-1.791c-1.78 0.024-3.494 0.264-5.129 0.695l0.147-0.033c-0.603 0.157-1.185 0.326-1.731 0.513l-0.623 0.212v-13.627l0.266-0.128c1.89-0.918 4.096-1.513 6.426-1.649l0.047-0.002c0.008-0.001 0.018-0.001 0.028-0.001s0.019 0 0.029 0.001l-0.001-0c0.248-0.012 0.497-0.018 0.742-0.018h0.28c0.129 0.003 0.258 0.006 0.388 0.014z"></path>
<path fill="#afb1b8" style="fill: var(--color2,  )" d="M14.839 3.652c-0.005 0-0.010 0-0.016 0-0.915 0-1.811-0.077-2.684-0.225l0.094 0.013c-0.277-0.047-0.55-0.103-0.814-0.164v17.277c1.12 0.277 2.271 0.412 3.425 0.404 1.607-0.007 3.162-0.218 4.644-0.61l-0.128 0.029c1.817-0.461 3.412-1.129 4.877-1.995l-0.085 0.047v-17.165c-1.312 0.728-2.831 1.338-4.429 1.751l-0.136 0.030c-1.551 0.399-3.146 0.603-4.747 0.609zM21.748 3.95l0.623-0.209v13.631l-0.267 0.129c-0.903 0.443-1.963 0.834-3.065 1.118l-0.119 0.026c-1.331 0.345-2.7 0.521-4.074 0.527-0.411 0-0.819-0.017-1.214-0.052l-0.427-0.038v-14.019l0.497 0.033c0.361 0.023 0.735 0.034 1.141 0.034 1.745-0.006 3.483-0.229 5.174-0.663 0.581-0.154 1.158-0.326 1.731-0.518zM1.685 25.98c-0.167-0.173-0.401-0.281-0.661-0.281-0.011 0-0.023 0-0.034 0.001l0.002-0c-0.004-0-0.009-0-0.014-0-0.139 0-0.272 0.028-0.393 0.078l0.007-0.003c-0.237 0.095-0.42 0.28-0.51 0.512l-0.002 0.006c-0.049 0.123-0.073 0.254-0.071 0.387v2.335c-0.006 0.164 0.026 0.328 0.092 0.479 0.055 0.12 0.135 0.227 0.234 0.313 0.093 0.078 0.203 0.135 0.32 0.166 0.114 0.031 0.231 0.048 0.349 0.048 0.13 0.001 0.258-0.026 0.377-0.081 0.351-0.156 0.591-0.501 0.591-0.902v-0.261h-0.611v0.208c0 0.004 0 0.009 0 0.014 0 0.070-0.013 0.136-0.037 0.198l0.001-0.004c-0.021 0.052-0.051 0.095-0.089 0.132l-0 0c-0.070 0.054-0.159 0.088-0.255 0.089h-0c-0.011 0.001-0.023 0.002-0.036 0.002-0.103 0-0.194-0.050-0.25-0.127l-0.001-0.001c-0.051-0.082-0.082-0.182-0.082-0.289 0-0.008 0-0.016 0.001-0.024l-0 0.001v-2.177c-0.004-0.121 0.022-0.24 0.075-0.349 0.056-0.087 0.153-0.143 0.262-0.143 0.013 0 0.025 0.001 0.038 0.002l-0.001-0c0.003-0 0.007-0 0.012-0 0.107 0 0.201 0.052 0.26 0.131l0.001 0.001c0.063 0.082 0.101 0.187 0.101 0.3 0 0.005-0 0.009-0 0.014v-0.001 0.202h0.604v-0.238c0-0.003 0-0.007 0-0.011 0-0.143-0.027-0.28-0.077-0.405l0.003 0.007c-0.048-0.128-0.117-0.237-0.205-0.329l0 0zM5.311 25.954c-0.186-0.158-0.429-0.255-0.694-0.257h-0c-0.124 0-0.248 0.023-0.364 0.066-0.252 0.090-0.451 0.276-0.557 0.512l-0.002 0.006c-0.062 0.142-0.092 0.297-0.089 0.452v2.239c-0.004 0.158 0.026 0.314 0.089 0.459 0.055 0.121 0.135 0.228 0.236 0.313 0.094 0.086 0.203 0.154 0.322 0.197 0.117 0.043 0.24 0.065 0.364 0.066 0.267-0.001 0.51-0.1 0.695-0.264l-0.001 0.001c0.097-0.087 0.176-0.194 0.23-0.313 0.063-0.144 0.093-0.301 0.089-0.459v-2.24c0-0.006 0-0.013 0-0.020 0-0.156-0.033-0.305-0.092-0.439l0.003 0.007c-0.057-0.128-0.135-0.237-0.23-0.327l-0-0zM5.026 28.972c0.001 0.010 0.002 0.023 0.002 0.035 0 0.114-0.047 0.216-0.123 0.289l-0 0c-0.077 0.065-0.178 0.105-0.287 0.105s-0.21-0.040-0.288-0.105l0.001 0.001c-0.076-0.073-0.123-0.176-0.123-0.289 0-0.012 0.001-0.025 0.002-0.037l-0 0.002v-2.24c-0.001-0.010-0.001-0.022-0.001-0.034 0-0.114 0.047-0.216 0.123-0.289l0-0c0.077-0.065 0.178-0.105 0.287-0.105s0.21 0.040 0.288 0.105l-0.001-0.001c0.076 0.073 0.123 0.175 0.123 0.289 0 0.012-0.001 0.025-0.002 0.037l0-0.002v2.24zM10.074 29.973v-4.241h-0.587l-0.771 2.245h-0.010l-0.777-2.244h-0.58v4.239h0.606v-2.579h0.011l0.593 1.823h0.302l0.598-1.823h0.010v2.579h0.606zM13.515 26.030c-0.093-0.105-0.211-0.185-0.342-0.232-0.124-0.042-0.267-0.066-0.416-0.066-0.008 0-0.016 0-0.024 0l0.001-0h-0.9v4.241h0.604v-1.656h0.311c0.189 0.009 0.376-0.031 0.545-0.116 0.139-0.078 0.251-0.188 0.329-0.32l0.002-0.004c0.070-0.113 0.117-0.238 0.138-0.369 0.021-0.133 0.033-0.287 0.033-0.444 0-0.013-0-0.027-0-0.040l0 0.002c0.006-0.203-0.014-0.407-0.059-0.606-0.043-0.153-0.12-0.284-0.223-0.39l0 0zM13.203 27.323c-0.003 0.081-0.023 0.157-0.057 0.224l0.001-0.003c-0.035 0.065-0.089 0.116-0.154 0.147l-0.002 0.001c-0.075 0.034-0.162 0.054-0.254 0.054-0.011 0-0.022-0-0.033-0.001l0.002 0h-0.276v-1.441h0.311c0.009-0 0.019-0.001 0.029-0.001 0.088 0 0.172 0.020 0.247 0.055l-0.004-0.002c0.062 0.036 0.111 0.090 0.141 0.154l0.001 0.002c0.033 0.074 0.051 0.155 0.053 0.236v0.282c0 0.098 0.006 0.201 0 0.291h-0.006zM16.377 25.732h-0.495l-0.934 4.241h0.604l0.177-0.911h0.823l0.178 0.911h0.604l-0.958-4.241zM15.819 28.484l0.297-1.537h0.011l0.295 1.537h-0.604zM20.28 28.286h-0.011l-0.912-2.554h-0.581v4.241h0.604v-2.55h0.012l0.923 2.549h0.568v-4.239h-0.604v2.554zM23.971 25.732l-0.486 1.686h-0.012l-0.486-1.686h-0.639l0.83 2.448v1.792h0.604v-1.792l0.83-2.448h-0.64zM0 31.17h0.291v0.817h0.198v-0.817h0.289v-0.167h-0.778v0.168zM2.448 31.002l-0.382 0.985h0.21l0.081-0.224h0.392l0.084 0.224h0.215l-0.391-0.985h-0.21zM2.417 31.597l0.134-0.365 0.134 0.365h-0.268zM4.867 31.623h0.228v0.127c-0.063 0.051-0.145 0.083-0.234 0.083h-0c-0.004 0-0.009 0-0.014 0-0.079 0-0.149-0.037-0.195-0.094l-0-0c-0.046-0.065-0.073-0.147-0.073-0.234 0-0.008 0-0.016 0.001-0.023l-0 0.001c0-0.219 0.095-0.329 0.283-0.329 0.006-0.001 0.014-0.001 0.021-0.001 0.097 0 0.178 0.067 0.201 0.157l0 0.001 0.194-0.038c-0.042-0.192-0.18-0.289-0.417-0.289-0.004-0-0.008-0-0.013-0-0.127 0-0.244 0.048-0.331 0.127l0-0c-0.088 0.087-0.143 0.208-0.143 0.342 0 0.013 0 0.026 0.002 0.038l-0-0.002c-0 0.007-0 0.015-0 0.023 0 0.132 0.048 0.254 0.127 0.347l-0.001-0.001c0.087 0.090 0.209 0.146 0.343 0.146 0.011 0 0.021-0 0.032-0.001l-0.001 0c0.005 0 0.010 0 0.016 0 0.155 0 0.296-0.060 0.402-0.157l-0 0v-0.388h-0.426v0.166zM7.339 31.002h-0.199v0.985h0.689v-0.167h-0.49v-0.817zM9.428 31.002h-0.199v0.985h0.199v-0.985zM11.471 31.659l-0.404-0.657h-0.193v0.985h0.185v-0.643l0.396 0.643h0.198v-0.985h-0.182v0.658zM13.317 31.553h0.491v-0.167h-0.491v-0.215h0.527v-0.168h-0.727v0.985h0.747v-0.167h-0.548v-0.267zM17.795 31.39h-0.388v-0.388h-0.197v0.984h0.197v-0.431h0.388v0.431h0.198v-0.985h-0.198v0.388zM19.652 31.553h0.492v-0.167h-0.492v-0.215h0.529v-0.168h-0.726v0.985h0.746v-0.167h-0.548v-0.267zM22.171 31.553c0.171-0.027 0.259-0.118 0.259-0.274 0.001-0.008 0.002-0.018 0.002-0.028 0-0.079-0.038-0.148-0.098-0.191l-0.001-0c-0.073-0.037-0.159-0.059-0.25-0.059-0.014 0-0.027 0-0.040 0.001l0.002-0h-0.417v0.984h0.198v-0.412h0.039c0.005-0 0.010-0 0.016-0 0.039 0 0.076 0.008 0.109 0.023l-0.002-0.001c0.029 0.018 0.053 0.042 0.070 0.072l0.215 0.313h0.236l-0.12-0.192c-0.054-0.096-0.128-0.175-0.215-0.235l-0.002-0.002zM21.972 31.417h-0.146v-0.247h0.156c0.012-0.001 0.027-0.002 0.042-0.002 0.057 0 0.112 0.009 0.163 0.026l-0.004-0.001c0.026 0.024 0.043 0.058 0.043 0.096 0 0.042-0.020 0.080-0.052 0.104l-0 0c-0.049 0.016-0.106 0.025-0.164 0.025-0.013 0-0.026-0-0.039-0.001l0.002 0zM24.071 31.553h0.49v-0.167h-0.49v-0.215h0.529v-0.168h-0.729v0.985h0.747v-0.167h-0.548v-0.267z"></path>
</symbol>
<symbol id="icon-logo3" viewBox="0 0 31 32">
<path fill="#afb1b8" style="fill: var(--color2, )" d="M4.725 31.108c0.023 0.001 0.044 0.010 0.060 0.025v0l0.153 0.161c-0.119 0.13-0.266 0.234-0.431 0.304-0.194 0.077-0.401 0.115-0.61 0.109-0.009 0-0.020 0-0.031 0-0.196 0-0.382-0.038-0.554-0.106l0.010 0.004c-0.332-0.134-0.588-0.397-0.709-0.725l-0.003-0.009c-0.061-0.164-0.097-0.353-0.097-0.55 0-0.007 0-0.015 0-0.022v0.001c-0-0.007-0-0.015-0-0.023 0-0.198 0.038-0.387 0.108-0.56l-0.004 0.010c0.067-0.165 0.168-0.316 0.298-0.444 0.13-0.127 0.287-0.225 0.459-0.29 0.188-0.070 0.389-0.104 0.591-0.102 0.188-0.004 0.375 0.027 0.55 0.093 0.151 0.063 0.29 0.149 0.412 0.257l-0.129 0.171c-0.009 0.012-0.020 0.023-0.032 0.031l-0 0c-0.013 0.009-0.028 0.014-0.045 0.014-0.002 0-0.004-0-0.006-0l0 0c-0.021-0.001-0.040-0.008-0.056-0.019l0 0-0.068-0.045-0.096-0.059c-0.087-0.046-0.189-0.082-0.296-0.101l-0.006-0.001c-0.063-0.011-0.135-0.018-0.209-0.018-0.007 0-0.013 0-0.020 0h0.001c-0.005-0-0.010-0-0.016-0-0.147 0-0.288 0.028-0.417 0.079l0.008-0.003c-0.13 0.051-0.241 0.124-0.333 0.216l0-0c-0.095 0.099-0.169 0.216-0.216 0.342-0.054 0.145-0.081 0.298-0.079 0.453-0.002 0.156 0.025 0.313 0.079 0.46 0.046 0.126 0.119 0.242 0.212 0.341 0.088 0.093 0.196 0.165 0.318 0.212 0.125 0.049 0.259 0.074 0.394 0.073 0.078 0.001 0.156-0.004 0.234-0.015 0.127-0.015 0.247-0.057 0.354-0.122 0.054-0.034 0.104-0.071 0.151-0.113 0.019-0.017 0.044-0.029 0.072-0.030h0zM9.148 30.3c0.002 0.194-0.033 0.387-0.103 0.568-0.067 0.172-0.165 0.319-0.288 0.44l-0 0c-0.126 0.123-0.276 0.221-0.444 0.286l-0.009 0.003c-0.173 0.065-0.373 0.102-0.582 0.102s-0.409-0.037-0.594-0.106l0.012 0.004c-0.175-0.069-0.325-0.167-0.45-0.29l0 0c-0.123-0.123-0.222-0.271-0.288-0.436l-0.003-0.009c-0.065-0.169-0.103-0.364-0.103-0.568s0.038-0.399 0.107-0.579l-0.004 0.011c0.065-0.166 0.164-0.318 0.29-0.447 0.126-0.119 0.276-0.214 0.441-0.276l0.009-0.003c0.173-0.066 0.373-0.104 0.582-0.104s0.409 0.038 0.594 0.108l-0.012-0.004c0.17 0.066 0.324 0.164 0.452 0.29 0.127 0.127 0.224 0.275 0.289 0.439 0.071 0.182 0.106 0.376 0.104 0.571zM8.746 30.3c0-0.007 0-0.016 0-0.024 0-0.155-0.027-0.303-0.076-0.441l0.003 0.009c-0.087-0.256-0.278-0.457-0.522-0.554l-0.006-0.002c-0.126-0.047-0.271-0.075-0.423-0.075s-0.297 0.027-0.432 0.078l0.009-0.003c-0.251 0.099-0.443 0.299-0.528 0.55l-0.002 0.006c-0.097 0.298-0.097 0.616 0 0.913 0.087 0.256 0.279 0.457 0.524 0.552l0.006 0.002c0.273 0.097 0.573 0.097 0.846 0 0.124-0.048 0.234-0.121 0.324-0.214 0.092-0.1 0.162-0.216 0.205-0.341 0.052-0.147 0.076-0.301 0.073-0.456zM12.164 30.779l0.041 0.102c0.015-0.036 0.028-0.069 0.044-0.102 0.017-0.040 0.034-0.073 0.052-0.105l-0.002 0.005 0.978-1.694c0.019-0.030 0.037-0.048 0.056-0.053 0.020-0.006 0.043-0.009 0.066-0.009 0.005 0 0.010 0 0.015 0l-0.001-0h0.289v2.755h-0.342v-2.111c-0.001-0.014-0.001-0.031-0.001-0.048s0.001-0.033 0.001-0.050l-0 0.002-0.984 1.719c-0.013 0.026-0.033 0.048-0.057 0.062l-0.001 0c-0.023 0.014-0.052 0.022-0.082 0.022-0.001 0-0.002 0-0.002-0h-0.055c-0.030 0.001-0.060-0.007-0.084-0.022s-0.044-0.036-0.057-0.062l-0-0.001-1.013-1.73v2.213h-0.331v-2.75h0.289c0.004-0 0.009-0 0.014-0 0.024 0 0.046 0.003 0.068 0.010l-0.002-0c0.024 0.011 0.042 0.029 0.053 0.052l0 0.001 1 1.696c0.018 0.028 0.035 0.060 0.048 0.094l0.001 0.004zM15.846 30.643v1.032h-0.383v-2.751h0.854c0.010-0 0.021-0 0.033-0 0.158 0 0.311 0.022 0.456 0.063l-0.012-0.003c0.124 0.034 0.239 0.092 0.337 0.171 0.085 0.074 0.15 0.167 0.191 0.27 0.045 0.112 0.067 0.232 0.066 0.352 0.002 0.121-0.022 0.24-0.071 0.352-0.049 0.109-0.119 0.201-0.205 0.274l-0.001 0.001c-0.095 0.080-0.209 0.143-0.333 0.181l-0.007 0.002c-0.149 0.045-0.305 0.067-0.461 0.064l-0.463-0.007zM15.846 30.346h0.464c0.1 0.002 0.201-0.013 0.296-0.042 0.083-0.027 0.154-0.068 0.215-0.12l-0.001 0.001c0.056-0.049 0.1-0.11 0.129-0.178l0.001-0.003c0.029-0.066 0.046-0.144 0.046-0.225 0-0.003-0-0.005-0-0.008v0c0-0.008 0.001-0.018 0.001-0.028 0-0.071-0.015-0.138-0.041-0.199l0.001 0.003c-0.032-0.074-0.077-0.137-0.134-0.188l-0-0c-0.126-0.094-0.285-0.15-0.457-0.15-0.020 0-0.040 0.001-0.060 0.002l0.003-0h-0.464v1.134zM20.992 31.678h-0.302c-0.002 0-0.004 0-0.006 0-0.030 0-0.057-0.010-0.079-0.026l0 0c-0.021-0.017-0.038-0.038-0.049-0.063l-0-0.001-0.261-0.665h-1.307l-0.27 0.665c-0.011 0.025-0.027 0.046-0.047 0.061l-0 0c-0.022 0.017-0.051 0.028-0.082 0.028-0.002 0-0.003-0-0.005-0h-0.302l1.148-2.756h0.398l1.164 2.756zM19.097 30.654h1.079l-0.456-1.122c-0.030-0.071-0.060-0.157-0.083-0.246l-0.003-0.014-0.044 0.144c-0.015 0.049-0.029 0.088-0.045 0.126l0.003-0.009-0.452 1.119zM22.646 28.934c0.023 0.013 0.043 0.030 0.058 0.050l1.675 2.077v-2.139h0.342v2.756h-0.191c-0.001 0-0.003 0-0.005 0-0.027 0-0.052-0.006-0.074-0.017l0.001 0c-0.024-0.014-0.044-0.031-0.061-0.051l-0-0-1.674-2.075c0.002 0.031 0.002 0.063 0 0.095v2.049h-0.342v-2.757h0.203c0.024 0 0.047 0.004 0.068 0.013zM27.544 30.582v1.094h-0.383v-1.094l-1.058-1.66h0.342c0.002-0 0.005-0 0.008-0 0.028 0 0.054 0.009 0.075 0.024l-0-0c0.021 0.018 0.038 0.038 0.052 0.061l0.001 0.001 0.662 1.070c0.026 0.045 0.049 0.088 0.068 0.128s0.034 0.078 0.048 0.116l0.050-0.118c0.021-0.049 0.043-0.090 0.068-0.13l-0.002 0.004 0.653-1.078c0.014-0.022 0.031-0.042 0.050-0.059l0-0c0.020-0.017 0.047-0.027 0.076-0.027 0.002 0 0.004 0 0.006 0h0.347l-1.061 1.667zM11.975 24.297c0.167 0.020 0.335 0.037 0.506 0.051 2.583-1.102 4.768-2.903 6.282-5.18s2.29-4.93 2.231-7.626l-2.847-2.712c0.189 0.894 0.297 1.922 0.297 2.974 0 2.015-0.396 3.938-1.115 5.695l0.036-0.1c-1.090 2.732-2.957 5.121-5.391 6.9z"></path>
<path fill="#afb1b8" style="fill: var(--color2, )" d="M10.958 24.171l0.077 0.015c2.601-1.773 4.584-4.248 5.692-7.105 0.627-1.565 0.991-3.378 0.991-5.277 0-1.296-0.17-2.553-0.488-3.749l0.023 0.102-4.055-3.862c1.27 2.397 2.015 5.24 2.015 8.256 0 0.701-0.040 1.394-0.119 2.074l0.008-0.083c-0.397 3.519-1.834 6.858-4.144 9.63zM24.71 14.727c-0.688 2.962-2.362 5.633-4.771 7.617-0.665 0.553-1.406 1.066-2.191 1.511l-0.075 0.039c2.039-0.578 3.805-1.556 5.285-2.851l-0.016 0.013c1.466-1.282 2.626-2.875 3.381-4.68l0.031-0.084-1.645-1.565z"></path>
<path fill="#afb1b8" style="fill: var(--color2,  1b8)" d="M24.065 14.29l-2.342-2.231c-0.053 2.681-0.866 5.162-2.23 7.25l0.032-0.053c-1.394 2.17-3.373 3.944-5.73 5.138h0.012c0.525 0 1.049-0.030 1.572-0.089 2.251-0.884 4.15-2.238 5.65-3.95l0.014-0.017c1.454-1.661 2.512-3.704 3.006-5.959l0.016-0.089zM11.298 2.665l-2.793-2.665c-2.497 0.919-4.644 2.535-6.161 4.637s-2.333 4.59-2.341 7.14c0.010 2.819 1.005 5.552 2.829 7.771s4.373 3.794 7.243 4.477c2.562-2.973 4.062-6.648 4.282-10.489s-0.851-7.649-3.059-10.871zM30.518 13.88c-0.010-3.343-1.409-6.548-3.89-8.911s-5.844-3.697-9.354-3.707c-1.622-0.002-3.23 0.284-4.742 0.841l17.102 16.293c0.559-1.335 0.884-2.886 0.884-4.514 0-0 0-0.001 0-0.001v0z"></path>
</symbol>
<symbol id="icon-logo4" viewBox="0 0 60 32">
<path fill="#2196f3" style="fill: var(--color3, )" d="M9.231 9.549h-0.002c-1.684 0-3.049 1.331-3.049 2.971v0.002c0 1.64 1.365 2.971 3.049 2.971h0.002c1.684 0 3.049-1.331 3.049-2.971v-0.002c0-1.64-1.365-2.97-3.049-2.97zM31.735 8.6c-0.005-2.28-0.936-4.464-2.59-6.076-1.652-1.611-3.893-2.519-6.232-2.525-2.339 0.004-4.582 0.912-6.236 2.523s-2.586 3.797-2.59 6.077v12.568s17.647-1.915 17.65-12.566v-0.002zM0 25.293c0.008 1.659 0.697 3.156 1.801 4.226l0.002 0.001c1.121 1.087 2.65 1.757 4.337 1.758h0c1.686-0.001 3.216-0.671 4.338-1.759l-0.002 0.002c1.106-1.072 1.795-2.568 1.803-4.224v-8.747s-12.28 1.335-12.28 8.744zM6.141 26.859c-0.001 0-0.002 0-0.003 0-0.331 0-0.639-0.098-0.897-0.267l0.006 0.004c-0.261-0.171-0.465-0.411-0.589-0.693l-0.004-0.010c-0.077-0.177-0.122-0.383-0.122-0.599 0-0.108 0.011-0.214 0.033-0.316l-0.002 0.010c0.063-0.304 0.216-0.584 0.441-0.802 0.22-0.213 0.5-0.365 0.813-0.427l0.010-0.002c0.312-0.061 0.635-0.030 0.929 0.089s0.545 0.319 0.722 0.577c0.17 0.244 0.271 0.546 0.271 0.872 0 0.216-0.045 0.422-0.125 0.609l0.004-0.010c-0.080 0.191-0.199 0.365-0.348 0.511s-0.327 0.262-0.522 0.341c-0.182 0.076-0.394 0.12-0.616 0.12-0 0-0 0-0.001 0h0v-0.006zM18.675 25.887h-1.256v1.297h-0.655v-3.174h2.068v0.53h-1.413v0.819h1.256v0.528zM21.818 25.669c0 0.313-0.056 0.587-0.166 0.822s-0.269 0.417-0.476 0.545c-0.194 0.121-0.43 0.192-0.682 0.192-0.009 0-0.017-0-0.025-0l0.001 0c-0.012 0-0.026 0.001-0.039 0.001-0.504 0-0.939-0.296-1.141-0.723l-0.003-0.008c-0.109-0.23-0.173-0.5-0.173-0.785 0-0.009 0-0.018 0-0.028l-0 0.001v-0.158c0-0.313 0.056-0.588 0.168-0.825 0.113-0.238 0.272-0.421 0.477-0.547 0.206-0.128 0.442-0.192 0.707-0.192s0.499 0.064 0.704 0.192c0.206 0.127 0.365 0.309 0.477 0.547s0.17 0.511 0.17 0.822v0.141zM21.156 25.526c0-0.333-0.060-0.586-0.179-0.759-0.106-0.157-0.284-0.26-0.485-0.26-0.009 0-0.018 0-0.027 0.001l0.001-0c-0.007-0-0.016-0-0.024-0-0.201 0-0.378 0.102-0.482 0.256l-0.001 0.002c-0.119 0.17-0.18 0.42-0.182 0.75v0.155c0 0.325 0.060 0.576 0.179 0.755s0.291 0.268 0.515 0.268c0.008 0 0.017 0.001 0.026 0.001 0.2 0 0.375-0.101 0.479-0.255l0.001-0.002c0.118-0.173 0.177-0.424 0.179-0.755v-0.155zM23.94 26.352c0-0.005 0-0.012 0-0.018 0-0.108-0.051-0.204-0.131-0.264l-0.001-0.001c-0.087-0.067-0.244-0.137-0.47-0.21-0.209-0.065-0.388-0.139-0.558-0.227l0.019 0.009c-0.36-0.195-0.541-0.457-0.541-0.787 0-0.171 0.048-0.325 0.144-0.459s0.236-0.24 0.417-0.316c0.182-0.075 0.385-0.113 0.61-0.113s0.429 0.042 0.606 0.124c0.178 0.082 0.315 0.197 0.412 0.347 0.099 0.15 0.149 0.32 0.149 0.511h-0.655c0-0.146-0.045-0.258-0.137-0.338-0.092-0.082-0.22-0.123-0.386-0.123-0.16 0-0.284 0.034-0.372 0.103-0.082 0.058-0.134 0.152-0.134 0.259 0 0.003 0 0.005 0 0.008v-0c0 0.103 0.052 0.189 0.155 0.259 0.105 0.070 0.258 0.135 0.461 0.197 0.372 0.112 0.643 0.251 0.813 0.417s0.255 0.372 0.255 0.619c0 0.275-0.104 0.491-0.312 0.648s-0.488 0.234-0.84 0.234c-0.244 0-0.467-0.045-0.667-0.133-0.189-0.080-0.344-0.207-0.458-0.365l-0.002-0.003c-0.099-0.147-0.157-0.328-0.157-0.522 0-0.006 0-0.013 0-0.019v0.001h0.656c0 0.35 0.21 0.525 0.628 0.525 0.156 0 0.277-0.031 0.365-0.094 0.079-0.057 0.131-0.149 0.131-0.253 0-0.005-0-0.009-0-0.014l0 0.001zM27.431 24.54h-0.972v2.645h-0.654v-2.645h-0.959v-0.53h2.586v0.53zM29.716 25.809h-1.256v0.85h1.474v0.525h-2.129v-3.174h2.124v0.53h-1.47v0.756h1.256v0.513zM31.494 26.023h-0.521v1.162h-0.655v-3.174h1.18c0.374 0 0.664 0.083 0.868 0.251s0.305 0.403 0.305 0.709c0 0.216-0.048 0.397-0.141 0.543-0.105 0.152-0.25 0.271-0.419 0.342l-0.006 0.002 0.687 1.297v0.031h-0.703l-0.595-1.162zM30.973 25.493h0.528c0.164 0 0.291-0.042 0.381-0.124 0.084-0.082 0.136-0.197 0.136-0.323 0-0.008-0-0.017-0.001-0.025l0 0.001c0-0.15-0.043-0.268-0.129-0.353-0.084-0.086-0.214-0.129-0.39-0.129h-0.526v0.953zM34.937 26.066v1.119h-0.655v-3.174h1.239c0.238 0 0.447 0.043 0.628 0.131s0.321 0.211 0.418 0.372c0.097 0.16 0.146 0.342 0.146 0.548 0 0.311-0.106 0.557-0.32 0.737-0.212 0.179-0.506 0.268-0.883 0.268h-0.573zM34.937 25.537h0.584c0.173 0 0.305-0.041 0.394-0.123 0.092-0.081 0.138-0.197 0.138-0.348 0-0.007 0.001-0.015 0.001-0.023 0-0.137-0.053-0.262-0.139-0.355l0 0c-0.092-0.096-0.218-0.145-0.38-0.149h-0.599v0.997zM39.075 25.809h-1.256v0.85h1.474v0.525h-2.129v-3.174h2.124v0.53h-1.469v0.756h1.256v0.513zM42.11 24.54h-0.972v2.645h-0.655v-2.645h-0.959v-0.53h2.586v0.53zM44.395 25.809h-1.256v0.85h1.474v0.525h-2.128v-3.174h2.124v0.53h-1.47v0.756h1.256v0.513zM46.173 26.023h-0.521v1.162h-0.654v-3.174h1.18c0.375 0 0.665 0.083 0.868 0.251s0.305 0.403 0.305 0.709c0 0.216-0.047 0.397-0.141 0.543-0.105 0.152-0.25 0.271-0.419 0.342l-0.006 0.002 0.687 1.297v0.031h-0.703l-0.595-1.162zM45.652 25.493h0.528c0.164 0 0.29-0.042 0.381-0.124 0.084-0.082 0.135-0.196 0.135-0.323 0-0.009-0-0.017-0.001-0.026l0 0.001c0-0.15-0.042-0.268-0.128-0.353-0.085-0.086-0.214-0.129-0.391-0.129h-0.525v0.953zM49.496 26.352c0-0.006 0.001-0.012 0.001-0.018 0-0.107-0.051-0.203-0.13-0.264l-0.001-0.001c-0.088-0.067-0.245-0.137-0.471-0.21-0.209-0.065-0.388-0.139-0.558-0.227l0.019 0.009c-0.36-0.195-0.541-0.457-0.541-0.787 0-0.171 0.048-0.325 0.144-0.459s0.236-0.24 0.417-0.316c0.181-0.075 0.385-0.113 0.61-0.113s0.429 0.042 0.606 0.124c0.177 0.082 0.315 0.197 0.412 0.347 0.099 0.15 0.149 0.32 0.149 0.511h-0.655c0-0.146-0.045-0.258-0.137-0.338-0.092-0.082-0.22-0.123-0.386-0.123-0.16 0-0.284 0.034-0.372 0.103-0.082 0.058-0.134 0.152-0.134 0.259 0 0.003 0 0.005 0 0.008v-0c0 0.103 0.052 0.189 0.155 0.259 0.105 0.070 0.258 0.135 0.46 0.197 0.372 0.112 0.644 0.251 0.814 0.417s0.255 0.372 0.255 0.619c0 0.275-0.104 0.491-0.312 0.648s-0.488 0.234-0.84 0.234c-0.244 0-0.467-0.045-0.667-0.133-0.189-0.080-0.344-0.207-0.458-0.365l-0.002-0.003c-0.099-0.147-0.157-0.328-0.157-0.522 0-0.006 0-0.013 0-0.019v0.001h0.656c0 0.35 0.208 0.525 0.627 0.525 0.156 0 0.277-0.031 0.365-0.094 0.079-0.057 0.131-0.149 0.131-0.253 0-0.005-0-0.009-0-0.014l0 0.001z"></path>
</symbol>
<symbol id="icon-logo5" viewBox="0 0 40 32">
<path fill="#afb1b8" style="fill: var(--color2, )" d="M3.056 26.749c0.157 0.194 0.24 0.438 0.236 0.688 0.001 0.016 0.001 0.035 0.001 0.053 0 0.324-0.141 0.615-0.365 0.815l-0.001 0.001c-0.304 0.231-0.681 0.343-1.062 0.317h-1.865v-4.362h1.827c0.031-0.002 0.067-0.003 0.103-0.003 0.341 0 0.657 0.11 0.914 0.297l-0.004-0.003c0.218 0.184 0.356 0.458 0.356 0.763 0 0.018-0.001 0.037-0.002 0.055l0-0.003c0.011 0.24-0.065 0.477-0.212 0.667-0.142 0.173-0.338 0.293-0.556 0.34 0.247 0.046 0.471 0.177 0.631 0.373zM0.868 26.090h0.78c0.178 0.014 0.354-0.038 0.497-0.145 0.104-0.095 0.169-0.232 0.169-0.383 0-0.015-0.001-0.030-0.002-0.045l0 0.002c0.001-0.011 0.001-0.024 0.001-0.037 0-0.153-0.064-0.291-0.167-0.389l-0-0c-0.124-0.093-0.281-0.15-0.45-0.15-0.021 0-0.043 0.001-0.064 0.003l0.003-0h-0.767v1.144zM2.222 27.763c0.114-0.1 0.186-0.246 0.186-0.408 0-0.012-0-0.024-0.001-0.036l0 0.002c0.001-0.010 0.001-0.021 0.001-0.032 0-0.166-0.073-0.314-0.189-0.416l-0.001-0.001c-0.132-0.099-0.299-0.159-0.48-0.159-0.018 0-0.036 0.001-0.054 0.002l0.002-0h-0.818v1.199h0.829c0.187 0.011 0.372-0.042 0.524-0.151zM6.792 28.624l-1.017-1.705h-0.382v1.705h-0.874v-4.362h1.655c0.034-0.003 0.074-0.004 0.114-0.004 0.396 0 0.76 0.142 1.042 0.377l-0.003-0.002c0.245 0.251 0.397 0.595 0.397 0.974 0 0.313-0.103 0.602-0.277 0.834l0.003-0.004c-0.204 0.235-0.483 0.392-0.789 0.443l1.083 1.743h-0.951zM5.393 26.325h0.715c0.497 0 0.745-0.22 0.745-0.661 0.001-0.011 0.001-0.024 0.001-0.037 0-0.176-0.070-0.336-0.184-0.454l0 0c-0.133-0.112-0.307-0.18-0.496-0.18-0.024 0-0.047 0.001-0.070 0.003l0.003-0h-0.724l0.009 1.328zM11.57 27.746h-1.742l-0.308 0.878h-0.917l1.6-4.313h0.991l1.594 4.313h-0.917l-0.301-0.878zM11.337 27.085l-0.637-1.841-0.637 1.841h1.273zM17.553 28.624h-0.869l-1.946-2.966v2.966h-0.866v-4.362h0.866l1.946 2.983v-2.983h0.868v4.362zM22.507 27.58c-0.182 0.33-0.45 0.594-0.775 0.765l-0.010 0.005c-0.378 0.191-0.797 0.286-1.22 0.274h-1.546v-4.362h1.546c0.020-0.001 0.043-0.001 0.067-0.001 0.42 0 0.817 0.1 1.168 0.277l-0.015-0.007c0.332 0.168 0.606 0.433 0.786 0.761 0.171 0.333 0.272 0.727 0.272 1.144s-0.1 0.811-0.278 1.158l0.007-0.014zM21.513 27.476c0.239-0.278 0.384-0.643 0.384-1.041s-0.145-0.763-0.386-1.043l0.002 0.002c-0.264-0.232-0.612-0.374-0.993-0.374-0.033 0-0.066 0.001-0.098 0.003l0.004-0h-0.603v2.823h0.603c0.028 0.002 0.061 0.003 0.094 0.003 0.381 0 0.729-0.142 0.994-0.375l-0.002 0.001zM12.114 0.001s11.204 4.247 10.967 10.392v10.394s-11.196-4.249-10.961-10.394l-0.005-10.392zM33.060 18.354c2.005-1.402 4.429-2.346 7.051-2.628l0.068-0.006v-3.254c-2.995 1.182-5.438 3.227-7.083 5.828l-0.035 0.060z"></path>
<path fill="#afb1b8" style="fill: var(--color2,  )" d="M31.789 19.334c1.75-3.488 4.694-6.16 8.285-7.515l0.105-0.035v-9.375s-15.956 6.049-15.618 14.8v14.799s0.711-0.27 1.83-0.778c0-0.473 0-0.95 0.050-1.43 0.35-4.207 2.343-7.889 5.328-10.449l0.021-0.017z"></path>
<path fill="#afb1b8" style="fill: var(--color2,  )" d="M30.272 24.831c0.084-1.026 0.27-2.042 0.558-3.030-2.038 2.401-3.303 5.515-3.379 8.923l-0 0.016c1.299-0.625 2.305-1.166 3.287-1.742l-0.218 0.118c-0.191-0.908-0.3-1.952-0.3-3.022 0-0.445 0.019-0.885 0.056-1.32l-0.004 0.057zM30.906 24.884c-0.031 0.359-0.049 0.777-0.049 1.2 0 0.948 0.090 1.875 0.261 2.772l-0.015-0.092c4.359-2.619 9.257-6.666 9.069-11.555v-0.426c-3.247 0.375-6.108 1.789-8.299 3.895l0.005-0.005c-0.501 1.235-0.847 2.665-0.968 4.159l-0.003 0.052z"></path>
</symbol>
<symbol id="icon-logo6" viewBox="0 0 62 32">
<path fill="#afb1b8" style="fill: var(--color2,  )" d="M31.128 14.856c-0.251-0.36-0.401-0.806-0.401-1.287 0-0.051 0.002-0.101 0.005-0.15l-0 0.007v-2.075c0-0.637 0.132-1.12 0.395-1.451s0.715-0.495 1.356-0.494c0.602 0 1.030 0.141 1.282 0.422 0.276 0.359 0.41 0.798 0.379 1.241v0.487h-1.077v-0.494c0-0.019 0.001-0.041 0.001-0.064 0-0.148-0.012-0.293-0.034-0.435l0.002 0.016c-0.017-0.115-0.073-0.214-0.153-0.287l-0-0c-0.095-0.071-0.215-0.113-0.345-0.113-0.016 0-0.032 0.001-0.048 0.002l0.002-0c-0.014-0.001-0.029-0.002-0.045-0.002-0.138 0-0.264 0.045-0.367 0.121l0.002-0.001c-0.090 0.081-0.154 0.19-0.178 0.313l-0.001 0.004c-0.031 0.169-0.045 0.341-0.042 0.513v2.519c-0.002 0.029-0.003 0.062-0.003 0.096 0 0.222 0.052 0.432 0.145 0.619l-0.004-0.008c0.055 0.075 0.128 0.134 0.212 0.171l0.003 0.001c0.063 0.027 0.136 0.044 0.213 0.044 0.023 0 0.045-0.001 0.067-0.004l-0.003 0c0.013 0.001 0.029 0.002 0.044 0.002 0.128 0 0.245-0.044 0.338-0.117l-0.001 0.001c0.084-0.079 0.142-0.184 0.16-0.303l0-0.003c0.026-0.167 0.037-0.336 0.034-0.504v-0.511h1.077v0.466c0.003 0.038 0.004 0.083 0.004 0.128 0 0.442-0.141 0.85-0.381 1.183l0.004-0.006c-0.247 0.308-0.669 0.462-1.289 0.462s-1.088-0.164-1.354-0.506zM35.613 14.878c-0.272-0.324-0.408-0.794-0.408-1.417v-2.183c0-0.616 0.136-1.083 0.408-1.399s0.726-0.475 1.364-0.473c0.633 0 1.085 0.158 1.358 0.473 0.271 0.317 0.41 0.783 0.41 1.399v2.183c0 0.616-0.139 1.089-0.415 1.414-0.277 0.325-0.727 0.487-1.354 0.487s-1.090-0.164-1.364-0.485zM37.479 14.354c0.097-0.202 0.142-0.424 0.129-0.646v-2.672c0.001-0.021 0.002-0.047 0.002-0.072 0-0.204-0.048-0.397-0.133-0.569l0.003 0.007c-0.056-0.076-0.13-0.136-0.217-0.173l-0.003-0.001c-0.062-0.027-0.135-0.042-0.211-0.042-0.026 0-0.051 0.002-0.076 0.005l0.003-0c-0.022-0.003-0.047-0.005-0.073-0.005-0.077 0-0.15 0.016-0.216 0.044l0.004-0.001c-0.090 0.038-0.164 0.098-0.22 0.172l-0.001 0.001c-0.098 0.197-0.143 0.415-0.129 0.633v2.685c-0.014 0.223 0.031 0.444 0.129 0.646 0.062 0.067 0.138 0.121 0.223 0.158l0.004 0.002c0.082 0.036 0.177 0.057 0.277 0.057s0.195-0.021 0.281-0.059l-0.005 0.002c0.089-0.039 0.164-0.093 0.226-0.16l0-0v-0.013zM40.040 9.469h1.16l0.872 4.028 0.892-4.028h1.129l0.113 5.814h-0.833l-0.089-4.040-0.861 4.040h-0.669l-0.892-4.055-0.083 4.055h-0.843l0.104-5.813zM45.506 9.469h1.806c1.040 0 1.561 0.55 1.561 1.651 0 1.054-0.548 1.58-1.643 1.579h-0.614v2.583h-1.115l0.007-5.813zM47.049 11.954c0.11 0.014 0.222 0.004 0.327-0.028 0.106-0.031 0.204-0.085 0.286-0.155 0.128-0.197 0.184-0.427 0.16-0.657 0.001-0.020 0.001-0.044 0.001-0.067 0-0.163-0.020-0.322-0.057-0.474l0.003 0.014c-0.017-0.062-0.045-0.115-0.083-0.161l0.001 0.001c-0.039-0.047-0.086-0.087-0.139-0.116l-0.002-0.001c-0.129-0.059-0.279-0.094-0.438-0.094-0.021 0-0.042 0.001-0.062 0.002l0.003-0h-0.433v1.737h0.433zM50.481 9.469h1.197l1.229 5.814h-1.039l-0.243-1.341h-1.068l-0.25 1.341h-1.055l1.229-5.813zM51.504 13.269l-0.417-2.441-0.417 2.441h0.835zM53.9 9.469h0.779l1.494 3.317v-3.317h0.925v5.813h-0.742l-1.503-3.462v3.462h-0.957l0.002-5.813zM59.266 13.066l-1.242-3.589h1.046l0.758 2.305 0.711-2.305h1.023l-1.226 3.589v2.217h-1.071v-2.217zM32.85 17.824v0.304h-0.91v2.362h-0.381v-2.362h-0.914v-0.304h2.206zM35.702 20.49h-0.294c-0.002 0-0.005 0-0.008 0-0.028 0-0.054-0.010-0.075-0.026l0 0c-0.022-0.015-0.038-0.036-0.048-0.060l-0-0.001-0.263-0.633h-1.262l-0.264 0.633c-0.008 0.028-0.022 0.052-0.040 0.072l0-0c-0.021 0.016-0.047 0.025-0.076 0.025-0.002 0-0.005-0-0.007-0h-0.294l1.115-2.666h0.388l1.129 2.656zM33.855 19.5h1.053l-0.446-1.085c-0.028-0.067-0.057-0.15-0.080-0.236l-0.003-0.014-0.042 0.141-0.040 0.111-0.442 1.083zM37.624 20.229c0.070 0.003 0.139 0.003 0.209 0 0.061-0.006 0.12-0.017 0.179-0.032 0.063-0.015 0.117-0.032 0.169-0.052l-0.009 0.003c0.049-0.019 0.099-0.042 0.15-0.065v-0.6h-0.446c-0.002 0-0.003 0-0.005 0-0.021 0-0.041-0.008-0.056-0.021l0 0c-0.014-0.011-0.022-0.027-0.022-0.046 0-0.001 0-0.002 0-0.003v0-0.205h0.865v1.022c-0.135 0.092-0.292 0.166-0.459 0.214l-0.012 0.003c-0.078 0.023-0.173 0.043-0.269 0.055l-0.009 0.001c-0.096 0.011-0.208 0.017-0.321 0.017-0.002 0-0.003 0-0.005 0h0c-0.004 0-0.008 0-0.013 0-0.197 0-0.386-0.037-0.56-0.103l0.011 0.004c-0.173-0.066-0.321-0.161-0.446-0.279l0.001 0.001c-0.12-0.117-0.218-0.258-0.285-0.414l-0.003-0.008c-0.065-0.159-0.103-0.343-0.103-0.536 0-0.006 0-0.012 0-0.018v0.001c-0-0.005-0-0.011-0-0.017 0-0.195 0.037-0.381 0.105-0.551l-0.004 0.010c0.064-0.158 0.161-0.301 0.287-0.422 0.127-0.12 0.279-0.214 0.446-0.277 0.191-0.068 0.394-0.102 0.598-0.099 0.104 0 0.207 0.007 0.31 0.023 0.090 0.014 0.179 0.036 0.266 0.067 0.078 0.028 0.153 0.063 0.223 0.106 0.069 0.042 0.134 0.088 0.195 0.139l-0.108 0.165c-0.009 0.015-0.021 0.027-0.036 0.036l-0 0c-0.015 0.009-0.032 0.014-0.051 0.014h-0c-0.026-0.001-0.050-0.008-0.070-0.021l0.001 0c-0.044-0.023-0.079-0.043-0.114-0.066l0.005 0.003c-0.042-0.026-0.092-0.050-0.143-0.070l-0.007-0.002c-0.057-0.023-0.126-0.043-0.197-0.058l-0.008-0.001c-0.081-0.015-0.173-0.023-0.268-0.023-0.005 0-0.011 0-0.016 0h0.001c-0.004-0-0.009-0-0.013-0-0.15 0-0.293 0.027-0.425 0.077l0.008-0.003c-0.125 0.047-0.237 0.119-0.328 0.211-0.093 0.096-0.163 0.209-0.207 0.332-0.047 0.132-0.075 0.285-0.075 0.444s0.027 0.312 0.078 0.454l-0.003-0.009c0.049 0.125 0.125 0.24 0.223 0.335 0.092 0.092 0.202 0.163 0.326 0.212 0.142 0.046 0.292 0.064 0.442 0.053zM41.178 20.186h1.218v0.304h-1.59v-2.666h0.381l-0.009 2.362zM43.662 20.49h-0.381v-2.665h0.381v2.666zM45.080 17.837c0.023 0.013 0.042 0.029 0.057 0.048l0 0 1.63 2.010c-0.001-0.014-0.002-0.031-0.002-0.048s0.001-0.033 0.002-0.050l-0 0.002v-1.986h0.332v2.677h-0.191c-0.004 0-0.009 0.001-0.013 0.001-0.025 0-0.049-0.006-0.071-0.016l0.001 0c-0.023-0.014-0.043-0.031-0.060-0.050l-0-0-1.628-2.007v2.073h-0.319v-2.665h0.198c0.022 0 0.043 0.004 0.063 0.013zM49.908 17.824v0.294h-1.351v0.88h1.095v0.282h-1.095v0.91h1.351v0.294h-1.744v-2.66h1.744zM9.951 1.359l16.931 4.551v15.948l-16.93-4.548v-15.951zM8.866-0v18.084l19.1 5.136v-18.083l-19.1-5.137z"></path>
<path fill="#afb1b8" style="fill: var(--color2,  )" d="M19.102 31.615l-19.102-5.14v-18.083l19.102 5.138v18.085z"></path>
<path fill="#afb1b8" style="fill: var(--color2,  )" d="M9.182 1.155l16.71 4.494-7.106 6.729-16.712-4.496 7.108-6.728zM8.866-0l-8.866 8.393 19.102 5.138 8.864-8.393-19.1-5.138zM20.177 30.598l7.789-7.375-7.789-2.096v9.471z"></path>
</symbol>
<symbol id="icon-twitter" viewBox="0 0 36 32">
<path fill="#afb1b8" style="fill: var(--color2,  )" d="M35.578 4.969c-1.223 0.548-2.642 0.953-4.128 1.143l-0.076 0.008c1.512-0.908 2.648-2.31 3.195-3.98l0.015-0.051c-1.331 0.803-2.881 1.416-4.532 1.749l-0.093 0.016c-1.334-1.422-3.225-2.308-5.322-2.308-4.027 0-7.292 3.265-7.292 7.292 0 0.001 0 0.003 0 0.004v-0c0 0.578 0.048 1.135 0.169 1.663-6.064-0.295-11.429-3.202-15.033-7.628-0.627 1.055-0.999 2.326-1.003 3.683v0.001c0 2.526 1.302 4.766 3.239 6.062-1.213-0.033-2.343-0.362-3.329-0.915l0.036 0.019v0.080c0.005 3.517 2.488 6.453 5.796 7.157l0.048 0.009c-0.556 0.153-1.195 0.24-1.855 0.24-0.020 0-0.040-0-0.061-0l0.003 0c-0.466 0-0.937-0.027-1.38-0.125 0.945 2.889 3.625 5.013 6.815 5.081-2.462 1.941-5.61 3.113-9.030 3.113-0.005 0-0.009 0-0.014 0h0.001c-0.020 0-0.045 0-0.069 0-0.591 0-1.173-0.038-1.744-0.11l0.068 0.007c3.142 2.052 6.99 3.273 11.123 3.273 0.023 0 0.047-0 0.070-0h-0.004c13.422 0 20.76-11.118 20.76-20.756 0-0.32-0.011-0.633-0.027-0.943 1.444-1.040 2.658-2.294 3.623-3.73l0.033-0.052z"></path>
</symbol>
<symbol id="icon-antenna" viewBox="0 0 32 32">
<path fill="#212121" style="fill: var(--color4,  )" d="M30.776 22.1l-8.444-8.506 0.937-4.616c0.225 0.090 0.485 0.144 0.758 0.146h0.007c0.008 0 0.017 0 0.026 0 1.193 0 2.159-0.967 2.159-2.159s-0.967-2.159-2.159-2.159c-1.193 0-2.159 0.967-2.159 2.159 0 0.259 0.046 0.508 0.13 0.739l-0.005-0.015-4.96 0.606-8.091-8.134c-0.096-0.098-0.229-0.159-0.377-0.16h-0c-0.14 0.001-0.274 0.057-0.374 0.155l-1.512 1.504c-0.096 0.097-0.156 0.23-0.156 0.377s0.060 0.281 0.156 0.377v0l0.814 0.825c-1.143 2.062-1.816 4.522-1.816 7.14 0 4.106 1.656 7.825 4.336 10.526l-0.001-0.001c0.043 0.041 0.092 0.074 0.146 0.097-0.032 0.164-0.051 0.353-0.052 0.546v6.189h-6.401c-1.472 0.001-2.666 1.194-2.668 2.667v1.067c0 0.295 0.239 0.534 0.534 0.534h24.536c0.294 0 0.533-0.239 0.533-0.534v-1.067c-0.002-1.472-1.195-2.665-2.667-2.667h-6.401v-2.742c1.003 0.21 2.024 0.317 3.049 0.32 2.58-0.003 5.005-0.663 7.118-1.822l-0.077 0.039 0.818 0.823c0.099 0.101 0.235 0.159 0.376 0.16 0.14-0.001 0.274-0.057 0.374-0.155l1.512-1.504c0.096-0.097 0.156-0.23 0.156-0.377s-0.060-0.281-0.156-0.377v0zM23.282 6.234c0.193-0.192 0.459-0.31 0.752-0.31 0.589 0 1.067 0.478 1.067 1.067s-0.478 1.067-1.067 1.067c-0 0-0 0-0 0h-0.004c-0.587-0.003-1.061-0.479-1.061-1.067 0-0.296 0.12-0.563 0.314-0.756l0-0h-0.002zM22.026 9.738l-0.598 2.946-1.175-1.183 1.774-1.763zM21.42 8.836l-1.92 1.909-1.486-1.494 3.406-0.416zM24.006 28.803c0.884 0 1.6 0.716 1.6 1.6v0 0.534h-23.469v-0.534c0-0.884 0.716-1.6 1.6-1.6v0h20.268zM16.539 26.669v1.067h-5.334v-1.067h5.334zM11.205 25.602v-4.054c0-1.294 1.196-2.347 2.667-2.347s2.667 1.053 2.667 2.347v4.054h-5.334zM17.606 23.906v-2.358c0-1.882-1.675-3.413-3.734-3.413-0.017-0-0.038-0-0.058-0-1.353 0-2.54 0.707-3.214 1.771l-0.009 0.016c-2.36-2.482-3.812-5.847-3.812-9.551 0-2.314 0.567-4.496 1.569-6.415l-0.036 0.077 18.604 18.71c-1.823 0.947-3.98 1.502-6.267 1.502-1.079 0-2.129-0.124-3.136-0.357l0.093 0.018zM28.896 23.222l-21.059-21.183 0.754-0.752 7.936 7.981c0.004 0 0.006 0.007 0.010 0.010l13.116 13.193-0.757 0.752z"></path>
<path fill="#2196f3" style="fill: var(--color3, #2196f3 )" d="M13.877 20.268h-0.005c-0.001 0-0.002 0-0.002 0-0.884 0-1.6 0.716-1.6 1.6s0.715 1.599 1.598 1.6h0.005c0.001 0 0.001 0 0.002 0 0.884 0 1.6-0.716 1.6-1.6s-0.715-1.599-1.598-1.6h-0zM14.25 22.247c-0.096 0.096-0.23 0.155-0.376 0.155-0.295 0-0.534-0.239-0.534-0.534s0.238-0.533 0.532-0.534h0c0.293 0.001 0.531 0.239 0.531 0.533 0 0.148-0.060 0.282-0.157 0.378l-0 0h0.005z"></path>
</symbol>
<symbol id="icon-astronavt" viewBox="0 0 32 32">
<path fill="#2196f3" style="fill: var(--color3, #2196f3 )" d="M31.977 4.524c-0.064-0.191-0.227-0.332-0.427-0.362l-0.003-0-1.911-0.278-0.855-1.731c-0.179-0.365-0.777-0.365-0.956 0l-0.855 1.731-1.911 0.278c-0.26 0.039-0.457 0.26-0.457 0.528 0 0.15 0.062 0.285 0.161 0.382l1.384 1.348-0.326 1.903c-0.034 0.2 0.048 0.402 0.212 0.522 0.166 0.12 0.383 0.135 0.562 0.040l1.709-0.899 1.709 0.899c0.072 0.038 0.157 0.061 0.248 0.061 0.295 0 0.534-0.239 0.534-0.534 0-0.031-0.003-0.062-0.008-0.092l0 0.003-0.326-1.903 1.383-1.348c0.099-0.097 0.161-0.233 0.161-0.382 0-0.059-0.009-0.115-0.027-0.168l0.001 0.004zM29.514 5.852c-0.126 0.122-0.183 0.299-0.153 0.472l0.191 1.114-1-0.526c-0.072-0.039-0.158-0.062-0.249-0.062s-0.177 0.023-0.252 0.063l0.003-0.001-1 0.526 0.191-1.114c0.005-0.027 0.008-0.059 0.008-0.091 0-0.149-0.061-0.285-0.16-0.381l-0-0-0.811-0.79 1.119-0.162c0.174-0.025 0.324-0.134 0.402-0.292l0.5-1.013 0.5 1.013c0.078 0.158 0.228 0.267 0.402 0.292l1.119 0.162-0.809 0.79zM26.136 20.524h-1.067v1.067h1.067v-1.067zM26.136 22.658h-1.067v1.066h1.067v-1.066zM27.202 21.591h-1.067v1.067h1.067v-1.067zM25.069 21.591h-1.067v1.067h1.067v-1.067zM22.402 26.391h-1.067v1.067h1.067v-1.067zM22.402 28.525h-1.067v1.067h1.067v-1.067zM23.469 27.458h-1.067v1.067h1.067v-1.067zM21.335 27.458h-1.067v1.067h1.067v-1.067zM16.001 24.258h-1.067v1.067h1.067v-1.067zM16.001 26.391h-1.067v1.067h1.067v-1.067zM17.068 25.324h-1.067v1.067h1.067v-1.067zM14.935 25.324h-1.067v1.067h1.067v-1.067zM5.867 6.123h-1.067v1.067h1.067v-1.067zM5.867 8.256h-1.067v1.067h1.067v-1.066zM6.934 7.189h-1.067v1.067h1.067v-1.067zM4.8 7.189h-1.067v1.067h1.067v-1.067z"></path>
<path fill="#212121" style="fill: var(--color4,  )" d="M24.717 14.161c-0.28-0.376-0.699-0.636-1.179-0.703l-0.009-0.001c-0.076-0.012-0.164-0.018-0.254-0.018-0.411 0-0.789 0.139-1.090 0.373l0.004-0.003-1.253 0.96-1.898 1.417-1.358-0.541c2.421-1.086 4.114-3.508 4.114-6.321 0-3.823-3.123-6.934-6.962-6.934s-6.962 3.111-6.962 6.934c0 1.386 0.415 2.675 1.12 3.759l-2.769-0.024c-0.009 0-0.016 0.005-0.023 0.005-0.057 0.003-0.11 0.014-0.159 0.033l0.004-0.001c-0.013 0.005-0.026 0.007-0.038 0.013-0.006 0.003-0.013 0.003-0.019 0.006l-3.233 1.596c-0 0-0.001 0-0.001 0.001l-1.893 0.91c-0.024 0.011-0.045 0.023-0.065 0.036l0.001-0.001c-0.482 0.324-0.795 0.867-0.795 1.483 0 0.297 0.073 0.577 0.201 0.823l-0.005-0.010c0.22 0.424 0.593 0.742 1.044 0.885l0.013 0.003c0.161 0.053 0.345 0.083 0.537 0.083 0.308 0 0.598-0.078 0.851-0.216l-0.009 0.005 1.388-0.738 2.264-1.169 1.357-0.008-5.442 5.416c0 0.001-0.001 0.001-0.001 0.001l-1.339 1.333c-0.303 0.299-0.491 0.714-0.491 1.174 0 0.002 0 0.003 0 0.005v-0c0.002 0.919 0.748 1.664 1.667 1.664 0.001 0 0.002 0 0.002 0h-0c0.428 0 0.854-0.162 1.18-0.486l1.314-1.309 1.741-1.3 0.901 0.897-3.102 3.089c-0.303 0.299-0.491 0.714-0.491 1.174 0 0.001 0 0.003 0 0.004v-0c0 0.445 0.174 0.864 0.491 1.179 0.302 0.3 0.717 0.485 1.176 0.485 0.001 0 0.002 0 0.003 0h-0c0.427 0 0.855-0.162 1.18-0.485l4.489-4.473c0.007-0.006 0.016-0.009 0.022-0.016l5.166-5.659 3.471 0.494c0.025 0.004 0.050 0.006 0.075 0.006 0.064 0 0.127-0.016 0.187-0.038 0.017-0.006 0.032-0.015 0.049-0.023 0.019-0.010 0.039-0.015 0.058-0.027l3.214-2.133c0.012-0.008 0.018-0.021 0.029-0.030 0.013-0.010 0.029-0.014 0.041-0.026l1.271-1.191c0.348-0.326 0.564-0.787 0.564-1.3 0-0.4-0.132-0.769-0.355-1.067l0.003 0.005zM2.13 17.772c-0.098 0.054-0.215 0.086-0.34 0.086-0.078 0-0.153-0.013-0.224-0.036l0.005 0.001c-0.294-0.093-0.504-0.364-0.504-0.683 0-0.235 0.114-0.444 0.289-0.575l0.002-0.001 1.314-0.632 0.316 0.924 0.133 0.389-0.992 0.527zM5.628 15.944l-1.548 0.8-0.255-0.747-0.184-0.537 2.027-1.001-0.040 1.484zM20.729 9.323c0 0.918-0.219 1.785-0.599 2.56l-4.182-1.9c-0.044-0.575-0.342-1.072-0.782-1.384l-0.006-0.004 1.464-4.861c2.377 0.757 4.105 2.975 4.105 5.589zM8.939 9.323c0-3.235 2.644-5.867 5.895-5.867 0.253 0 0.5 0.022 0.745 0.053l-1.432 4.753c-0.019 0-0.037-0.006-0.057-0.006-0 0-0.001 0-0.001 0-1.032 0-1.869 0.835-1.872 1.867v0c0.003 1.032 0.84 1.867 1.872 1.867 0 0 0 0 0.001 0h-0c0.695 0 1.295-0.383 1.618-0.945l3.863 1.755c-1.075 1.447-2.795 2.39-4.737 2.39-3.251 0-5.895-2.632-5.895-5.867zM14.896 10.123c0 0.441-0.362 0.8-0.806 0.8-0 0-0.001 0-0.001 0-0.443 0-0.802-0.358-0.804-0.8v-0c0-0.441 0.361-0.8 0.806-0.8s0.806 0.359 0.806 0.8zM2.465 25.148c-0.11 0.109-0.261 0.176-0.428 0.176s-0.317-0.067-0.427-0.175l0 0c-0.109-0.108-0.176-0.257-0.176-0.422s0.067-0.314 0.176-0.422l0-0 0.962-0.959 0.852 0.848-0.959 0.955zM5.679 28.882c-0.11 0.109-0.261 0.176-0.428 0.176s-0.317-0.067-0.427-0.175l0 0c-0.109-0.108-0.176-0.257-0.176-0.422s0.067-0.315 0.176-0.422l0-0 0.963-0.959 0.852 0.848-0.96 0.956zM9.161 25.413l-0.001 0.001-1.765 1.76-0.852-0.848 1.765-1.757c0.040-0.040 0.065-0.088 0.090-0.136 0.007-0.014 0.020-0.026 0.026-0.040 0.016-0.041 0.019-0.085 0.026-0.128 0.003-0.025 0.014-0.048 0.014-0.073 0-0.035-0.013-0.070-0.020-0.105-0.006-0.032-0.006-0.064-0.019-0.096-0.025-0.053-0.055-0.098-0.092-0.138l0 0c-0.010-0.012-0.014-0.027-0.025-0.038h-0.001s0-0.001-0.001-0.002l-1.607-1.6c-0.017-0.017-0.039-0.024-0.058-0.038-0.025-0.021-0.054-0.040-0.084-0.056l-0.003-0.001c-0.026-0.012-0.058-0.023-0.090-0.031l-0.003-0.001c-0.030-0.009-0.065-0.017-0.101-0.020l-0.002-0c-0.007-0-0.015-0-0.023-0-0.026 0-0.051 0.002-0.075 0.005l0.003-0c-0.036 0.005-0.069 0.009-0.104 0.021s-0.064 0.027-0.094 0.045c-0.020 0.011-0.043 0.015-0.061 0.029l-1.774 1.324-0.901-0.897 2.399-2.387 4.361 4.289-0.928 0.919zM15.98 18.396c-0.016-0.002-0.030 0.004-0.046 0.003-0.008-0-0.017-0.001-0.027-0.001-0.031 0-0.062 0.003-0.092 0.008l0.003-0c-0.070 0.011-0.132 0.035-0.187 0.070l0.002-0.001c-0.030 0.018-0.057 0.037-0.083 0.061-0.013 0.011-0.028 0.016-0.040 0.029l-4.698 5.146-4.329-4.257 2.833-2.819c0.096-0.097 0.156-0.23 0.156-0.377 0-0.295-0.239-0.534-0.534-0.534-0.001 0-0.001 0-0.002 0h0l-2.219 0.013 0.028-1.607 3.104 0.027c1.264 1.297 3.027 2.101 4.979 2.101 0.001 0 0.002 0 0.003 0h-0c0.438 0 0.864-0.046 1.28-0.123 0.040 0.032 0.080 0.064 0.129 0.085l2.41 0.96 0.152 0.758 0.178 0.886-3.003-0.427zM20.022 18.574l-0.313-1.558 1.447-1.080 0.946 1.257-2.080 1.382zM23.775 15.743l-0.838 0.785-0.931-1.236 0.831-0.637c0.155-0.119 0.351-0.168 0.543-0.143 0.193 0.027 0.364 0.128 0.48 0.284 0.088 0.117 0.141 0.265 0.141 0.426 0 0.206-0.087 0.391-0.226 0.521l-0 0z"></path>
<path fill="#212121" style="fill: var(--color4,  )" d="M13.604 18.546l-2.143-2.134c-0.096-0.096-0.229-0.155-0.376-0.155s-0.28 0.059-0.376 0.155l-2.143 2.134c-0.097 0.097-0.156 0.231-0.156 0.378s0.060 0.281 0.156 0.378l-0-0 2.142 2.134c0.096 0.096 0.229 0.156 0.377 0.156s0.28-0.059 0.377-0.156v0l2.143-2.134c0.097-0.097 0.157-0.23 0.157-0.378s-0.060-0.281-0.157-0.378l-0-0zM11.084 20.305l-1.387-1.381 1.387-1.381 1.388 1.381-1.388 1.381zM17.166 5.071l-0.258 1.036c0.071 0.018 1.738 0.452 1.738 2.149h1.067c0-2.017-1.666-2.965-2.547-3.185zM19.713 9.323h-1.067v1.067h1.067v-1.067z"></path>
</symbol>
<symbol id="icon-clock-" viewBox="0 0 32 32">
<path fill="#212121" style="fill: var(--color4,  )" d="M31.299 15.302c-0.001-8.453-6.855-15.304-15.309-15.302s-15.304 6.856-15.302 15.309c0.002 6.788 4.422 12.544 10.542 14.546l0.108 0.031c0.061 0.019 0.123 0.029 0.187 0.029 0.12 0 0.238-0.032 0.342-0.094 0.135-0.080 0.236-0.207 0.283-0.357l3.865-12.251c1.054-0.004 1.906-0.859 1.906-1.913 0-1.056-0.856-1.913-1.913-1.913-0.303 0-0.59 0.071-0.845 0.196l0.011-0.005-5.106-5.107c-0.114-0.11-0.271-0.179-0.443-0.179-0.352 0-0.638 0.286-0.638 0.638 0 0.172 0.068 0.328 0.179 0.443l-0-0 5.104 5.11c-0.121 0.241-0.191 0.525-0.191 0.826 0 0.602 0.283 1.137 0.723 1.48l0.004 0.003-3.683 11.674c-7.278-2.681-11.005-10.755-8.324-18.034s10.755-11.005 18.034-8.324c7.278 2.681 11.005 10.755 8.324 18.033-1.345 3.582-4.004 6.407-7.375 7.939l-0.088 0.036-0.398-1.874c-0.063-0.291-0.318-0.506-0.624-0.506-0.164 0-0.313 0.062-0.426 0.163l0.001-0.001-3.837 3.426c-0.132 0.117-0.214 0.287-0.214 0.477 0 0.283 0.185 0.524 0.441 0.606l0.005 0.001 4.899 1.564c0.058 0.020 0.126 0.031 0.196 0.031 0.352 0 0.637-0.285 0.637-0.637 0-0.047-0.005-0.093-0.015-0.138l0.001 0.004-0.391-1.839c5.528-2.375 9.329-7.772 9.329-14.058 0-0.011 0-0.023-0-0.034v0.002zM15.994 14.665c0.352 0 0.638 0.286 0.638 0.638s-0.286 0.638-0.638 0.638v0c-0.352 0-0.638-0.286-0.638-0.638s0.286-0.638 0.638-0.638v0zM18.094 29.53l2.184-1.949 0.603 2.84-2.787-0.892z"></path>
<path fill="#2196f3" style="fill: var(--color3,  #2196f3)" d="M15.356 3.185v1.276c0 0.352 0.286 0.638 0.638 0.638s0.638-0.286 0.638-0.638v0-1.276c0-0.352-0.286-0.638-0.638-0.638s-0.638 0.286-0.638 0.638v0zM3.876 14.665c-0.352 0-0.638 0.286-0.638 0.638s0.286 0.638 0.638 0.638h1.276c0.352 0 0.638-0.286 0.638-0.638s-0.286-0.638-0.638-0.638h-1.276zM28.111 15.941c0.352 0 0.638-0.286 0.638-0.638s-0.286-0.638-0.638-0.638h-1.276c-0.352 0-0.638 0.286-0.638 0.638s0.286 0.638 0.638 0.638h1.276z"></path>
</symbol>
<symbol id="icon-comp" viewBox="0 0 32 32">
<path fill="#2196f3" style="fill: var(--color3,  #2196f3)" d="M14.927 14.966h1.066v4.798h-1.066v-4.798zM19.192 17.099h1.066v2.665h-1.066v-2.665zM10.662 18.698h1.066v1.066h-1.066v-1.066zM7.464 18.164h1.066v1.599h-1.066v-1.599z"></path>
<path fill="#212121" style="fill: var(--color4,  )" d="M1.599 28.293h25.589c0 0 0 0 0 0 0.883 0 1.599-0.716 1.599-1.599v0-2.132c0-0.883-0.716-1.599-1.599-1.599v0h-0.533v-13.295l3.028-2.868c0.207 0.104 0.452 0.166 0.711 0.166 0.888 0 1.608-0.72 1.608-1.608s-0.72-1.608-1.608-1.608c-0.888 0-1.608 0.72-1.608 1.608 0 0.247 0.056 0.481 0.155 0.69l-0.004-0.010-2.281 2.162v-1.23c0-0.883-0.716-1.599-1.599-1.599v0h-21.324c-0.883 0-1.599 0.716-1.599 1.599v0 15.993h-0.533c-0.883 0-1.599 0.716-1.599 1.599v0 2.132c0 0.883 0.716 1.599 1.599 1.599v0zM30.387 4.837c0.294 0 0.533 0.239 0.533 0.533s-0.239 0.533-0.533 0.533v0c-0.294 0-0.533-0.239-0.533-0.533s0.239-0.533 0.533-0.533v0zM3.198 6.969c0-0.294 0.239-0.533 0.533-0.533h21.324c0.294 0 0.533 0.239 0.533 0.533v2.239l-1.066 1.013v-2.185c0-0.295-0.239-0.534-0.534-0.534h-19.191c-0.294 0-0.534 0.239-0.534 0.533v13.328c0 0.294 0.239 0.533 0.534 0.533h19.191c0.295 0 0.534-0.239 0.534-0.533v-9.675l1.066-1.010v12.285h-22.391v-15.992zM7.997 13.9c-0.001 0-0.003 0-0.005 0-0.883 0-1.599 0.716-1.599 1.599s0.716 1.599 1.599 1.599c0.432 0 0.825-0.172 1.112-0.45l-0 0 1.853 0.93c0.215 0.107 0.476 0.057 0.636-0.123l3.939-4.432 3.872 2.902c0.208 0.155 0.498 0.139 0.686-0.039l3.365-3.188v8.132h-18.125v-12.262h18.125v2.661l-3.772 3.572-3.904-2.927c-0.088-0.067-0.2-0.107-0.32-0.107-0.158 0-0.3 0.069-0.398 0.178l-0 0.001-3.993 4.493-1.493-0.747c0.011-0.064 0.017-0.128 0.020-0.193 0-0.883-0.716-1.599-1.599-1.599v0zM8.53 15.499c0 0.294-0.239 0.533-0.533 0.533s-0.533-0.239-0.533-0.533v0c0-0.294 0.239-0.533 0.533-0.533s0.533 0.239 0.533 0.533v0zM11.728 24.029h5.331v0.533c0 0.294-0.238 0.533-0.533 0.533h-4.265c-0.294 0-0.533-0.239-0.533-0.533v0-0.533zM1.067 24.562c0-0.294 0.238-0.533 0.533-0.533h9.063v0.533c0 0.883 0.716 1.599 1.599 1.599v0h4.265c0.883 0 1.599-0.716 1.599-1.599v0-0.533h9.063c0.294 0 0.533 0.239 0.533 0.533v2.132c0 0.294-0.239 0.533-0.533 0.533h-25.589c-0 0-0 0-0 0-0.294 0-0.533-0.239-0.533-0.533 0 0 0 0 0 0v0-2.132z"></path>
</symbol>
<symbol id="icon-home2" viewBox="0 0 32 32">
<path d="M16 1l-16 16 3 3 3-3v13h8v-6h4v6h8v-13l3 3 3-3-16-16zM16 14c-1.105 0-2-0.895-2-2s0.895-2 2-2c1.105 0 2 0.895 2 2s-0.895 2-2 2z"></path>
</symbol>
<symbol id="icon-x-mobil" viewBox="0 0 32 32">
<path d="M23.737 10.306l-1.504-1.504-5.964 5.963-5.963-5.963-1.504 1.504 5.963 5.963-5.963 5.964 1.504 1.504 5.963-5.964 5.964 5.964 1.504-1.504-5.964-5.964 5.964-5.963z"></path>
</symbol>
<symbol id="icon-3-line" viewBox="0 0 32 32">
<path d="M6.401 11.735v-2.134h19.203v2.134h-19.203zM6.401 17.069h19.203v-2.133h-19.203v2.133zM6.401 22.404h19.203v-2.134h-19.203v2.134z"></path>
</symbol>
</defs>
</svg>
